<svg xmlns="http://www.w3.org/2000/svg" height="32" fill="none" viewBox="0 0 18 18">
<path fill="#fff" fill-rule="evenodd" d="M12.606 5.07 11.39 6.997H6.983L6.448 5.07H4.52l2.475 8.893h1.926l5.611-8.893H12.606ZM8.33 11.847l-.847-3.042h2.765l-1.92 3.042h.002Z" clip-rule="evenodd"></path>

<path fill="#fff" fill-rule="evenodd" d="M9 0a9 9 0 0 0-9 9 9 9 0 0 0 9 9 9 9 0 0 0 9-9 9 9 0 0 0-9-9Zm0 15.939A6.947 6.947 0 0 1 2.06 9c0-3.825 3.112-6.94 6.939-6.94a6.947 6.947 0 0 1 6.939 6.939c0 3.825-3.114 6.938-6.94 6.938v.002Z" clip-rule="evenodd"></path></svg>